# xmcd
#
# Track frame offsets:
#	150
#	14682
#	32671
#	46676
#	60140
#	81399
#	92787
#	114575
#	127522
#	140588
#	156162
#	177665
#	195482
#
# Disc length: 3086 seconds
# Revision: 0
# Processed by: cddbd v1.5.2PL0 Copyright (c) Steve Scherf et al.
# Submitted via: dBpowerAMP V12.0
#
DISCID=a30c0c0d
DTITLE=NewFound Road - Live At the Down Home
DYEAR=2011
DGENRE=Country
TTITLE0=Try To Be
TTITLE1=These Days
TTITLE2=Blackadders Cove
TTITLE3=Ruben
TTITLE4=If You'll Pretend
TTITLE5=Room At the Top of the Stairs
TTITLE6=Lonesome River
TTITLE7=Band Introductions
TTITLE8=That's How I Got To Memphis
TTITLE9=We Ain't Going Down Without a Fight
TTITLE10=Please Come To Boston
TTITLE11=Houston
TTITLE12=Ain't No Sunshine
EXTD=
EXTT0=
EXTT1=
EXTT2=
EXTT3=
EXTT4=
EXTT5=
EXTT6=
EXTT7=
EXTT8=
EXTT9=
EXTT10=
EXTT11=
EXTT12=
PLAYORDER=
